<svg xmlns="http://www.w3.org/2000/svg" xmlns:xlink="http://www.w3.org/1999/xlink" viewBox="0 0 468.87 475.81"><defs><style>.cls-1{fill:url(#New_Gradient_Swatch_1);}</style><linearGradient id="New_Gradient_Swatch_1" x1="-4.07" y1="370.65" x2="508.36" y2="123.6" gradientUnits="userSpaceOnUse"><stop offset="0.02" stop-color="#14f1d9"/><stop offset="1" stop-color="#e1467c"/></linearGradient></defs><title>Asset 1</title><g id="Layer_2" data-name="Layer 2"><g id="Layer_1-2" data-name="Layer 1"><path class="cls-1" d="M424.67.6c-.9.5-3.3,3.2-5.3,6-4.4,5.9-6.9,6.2-7.1.7s-1-6.8-4.2-6.8c-2.9,0-7.3,3.7-8.5,7.3-1,2.7,2.9,6,6.3,5.3,1.8-.3,3.3,0,4,.9,1.3,1.6,0,3.7-7.9,12.6-5.6,6.3-8.1,6.5-8.1.6,0-4.9-1.3-6.7-4.8-6.7-2.8,0-8.2,5.1-8.2,7.8,0,2.9,3.5,5.5,6.5,5a5.46,5.46,0,0,1,4.8,1.3l2.2,1.8-7.7,7.8c-8.4,8.4-10.4,8.8-10,1.7.5-6.8-4.7-8.6-9.9-3.5-4.9,4.9-2.9,10.4,3.6,9.9,3.1-.2,6.5,1.5,6.5,3.2,0,.4-1.6,2.7-3.5,5.1a35.84,35.84,0,0,0-5.1,9.4c-1.5,4.6-7.4,10.8-73.6,77.1l-72.1,72.2L218,216c-20.9-14.9-44.4-16.6-62.7-4.6-10.8,7-15,12.7-27.4,36.9-4.1,7.9-8.9,16.1-10.8,18.3-5.9,6.8-13.9,10.6-43.9,20.4-34.7,11.5-41.9,15-52.9,25.9C10.17,323.1,6,331.2,2.17,348.1c-2.5,11.3-2.6,12.4-1.5,21.3,2.2,17.5,10.7,36.7,24.2,55.1,15,20.4,47.5,43,70.7,49.1,10.1,2.7,28.7,3,38.7.5,30.2-7.3,45.9-28.7,59.7-81.3,4.5-17.3,5.8-20.6,10.4-27.8,4.3-6.8,12-12.4,30.1-22,12.6-6.6,16-9,22-15,10.1-10.2,14.5-19.2,15.2-31.4.6-11-.9-19.6-5-27.5-2.9-5.9-10.1-16-13.3-18.6-1.5-1.2,5.9-8.9,71.7-74.7,64.6-64.6,73.8-73.5,77.9-74.8a21.27,21.27,0,0,0,6.9-4c1.3-1.4,2.9-2.5,3.6-2.5,2,0,3.8,3.1,3.6,6.2-.3,3.5,2.2,6.8,5,6.8,2.5,0,7.8-5.3,7.8-7.8s-3.1-5.2-6.1-5.2a8.75,8.75,0,0,1-4.2-1.4c-2.5-1.9-1.5-3.6,6.6-11.4,4.4-4.2,7-6,8.1-5.6,1.7.7,3.2,4.7,2.2,6.2s2.4,5.2,5,5.2c3.1,0,7.4-4.2,7.4-7.3s-1.8-4.7-5.4-4.7a7.8,7.8,0,0,1-4.7-1.6c-2.5-2.3-1.1-4.5,5.9-9.3a43.92,43.92,0,0,0,7.1-5.5c2-2.4,4.1-.1,3.9,4.4s.7,6,3.2,6c5.1,0,10.8-5.7,9.4-9.5-.9-2.3-4-3.6-6.7-3s-5.3-1.6-4.4-3.9c.3-.8,3.1-3.3,6.1-5.6s5.6-4.7,5.6-5.5-1.5-3.1-3.2-5.1-5.2-7.8-7.4-12.8l-4.1-9.1-5.9-2.4a83.71,83.71,0,0,1-12.9-7C426.07-.7,426.57-.5,424.67.6Z"/></g></g></svg>