<svg xmlns="http://www.w3.org/2000/svg" xmlns:xlink="http://www.w3.org/1999/xlink" viewBox="0 0 480.83 482"><defs><style>.cls-1{fill:url(#New_Gradient_Swatch_1);}</style><linearGradient id="New_Gradient_Swatch_1" x1="-6.51" y1="385.59" x2="523.17" y2="115.32" gradientUnits="userSpaceOnUse"><stop offset="0" stop-color="#3672f8"/><stop offset="1" stop-color="#b01eff"/></linearGradient></defs><title>Asset 1</title><g id="Layer_2" data-name="Layer 2"><g id="Layer_1-2" data-name="Layer 1"><path class="cls-1" d="M440.12,1.1c-2.5,1.5-6.7,8.4-6.7,11.1,0,4.5,3.5,6.8,8.9,6.1,3-.4,4.1,0,6.5,2.6,1.6,1.7,2.8,3.3,2.5,3.5s-4.8,3.1-10.1,6.4l-9.8,6.1-1.5-2.2c-2-2.8-1.9-4,.5-8.7,4.1-8,1.7-11.3-8-10.8-5.1.2-6.5.7-7.4,2.3-.6,1.1-1.9,3.1-2.8,4.4a7,7,0,0,0-.2,8.9c1.2,1.8,2.5,2.2,6.5,2.2,5,0,8.9,2.3,8.9,5.3,0,.7-4.3,3.9-9.6,7.2-9.2,5.5-9.8,5.7-11,4-2-2.6-1.7-5.8.7-9.9,4-6.8-.2-11.1-9.5-10-5.6.7-5.8.8-8.2,5.5-4.3,8.5-2.7,12,5.6,12.5,5.6.3,9.8,2.9,8.7,5.6-.5,1.6-16.8,11.8-18.6,11.8-.7,0-1.9-1.6-2.7-3.6-1.4-3.3-1.3-3.8.6-6.8,4.4-7.2,1.7-11.6-7.2-11.6-5.9,0-7.2.8-10.2,6.7-3.5,7-1,11.3,6.7,11.3,3.7,0,4.9.5,6.6,2.6a11.11,11.11,0,0,1,2.1,3.5c0,.5-2.5,2.5-5.5,4.5-6.1,4.1-7.2,6.3-5.6,12l1.1,3.9-88.7,88.7c-50.1,50.1-89.7,88.9-91,89.3-3.9.9-10.8-2.8-14-7.6l-2.8-4.3V233.9c0-17.9-.2-19.9-1.9-21.8a6.53,6.53,0,0,0-4.1-2.1c-9.1,0-31,27-47.4,58.6-11.1,21.3-19.3,27.9-50.6,40.4-38.1,15.2-59.1,31.6-68.3,53.4C.22,367.9-.08,369.7,0,381c0,11.6.2,13.1,3.3,21.5,9.1,24.9,23.1,43.6,44.9,60,19,14.2,32.3,19.5,49.1,19.5,5.3,0,11.9-.6,14.7-1.4,21.4-5.7,38.5-27.8,46-59.3,1.4-5.9,3.7-12.9,5.1-15.5,3.5-6.3,10.6-12.9,18.1-16.7,26.3-13.3,46.9-29.6,53-42,7.1-14.3,2.3-22.2-10.8-17.6-10.1,3.6-19.8-.2-23.6-9.2-2-4.6-1.7-8.1,1.1-14,3.3-7.3,39.3-44.7,125.4-130.8l69.1-69,5.4.2a28.75,28.75,0,0,1,10.1,2.4l4.8,2.3,3-3.5a234.41,234.41,0,0,0,27.8-42.1,43.19,43.19,0,0,1,5.5-8.5c2.1-2.1,3-2.3,7-1.7,9.4,1.4,19.2-5.7,21.3-15.6,1.4-6.5,0-11-4.9-15.3-4.7-4.3-9.7-5.5-16-3.8-4.2,1.1-4.6,1.1-6.2-1-2.3-2.8-2.2-5.8.2-8.9,4.4-5.6,1.1-11-6.7-11C444,0,441.12.5,440.12,1.1Z"/></g></g></svg>