<svg xmlns="http://www.w3.org/2000/svg" xmlns:xlink="http://www.w3.org/1999/xlink" viewBox="0 0 474.66 476.53"><defs><style>.cls-1{fill:url(#New_Gradient_Swatch_1);}</style><linearGradient id="New_Gradient_Swatch_1" x1="0.61" y1="380.9" x2="517.38" y2="117.21" gradientUnits="userSpaceOnUse"><stop offset="0" stop-color="#e1467c"/><stop offset="1" stop-color="#205284"/></linearGradient></defs><title>Asset 1</title><g id="Layer_2" data-name="Layer 2"><g id="Layer_1-2" data-name="Layer 1"><path class="cls-1" d="M428.63,2c-3.7,1.2-7.2,2.7-7.8,3.3s-1.2,4.4-1.2,8.5c-.2,5.2-.7,8.2-2,10.1-2.1,3.3-3.7,2.7-3.7-1.3,0-5.6-8.1-4.3-9.6,1.5-.8,3.2.2,4.5,3.5,4.5,5.1,0,5.5,2.2,1.3,6.3-4,3.9-5.2,3.9-5.2.1,0-5.3-7.5-4.6-9.4.8-1.1,3.2.8,6.1,3.5,5.3,3.4-1.1,2.9,1.4-.8,3.9-4.7,3.2-5.3,3.2-5.3.1a3.88,3.88,0,0,0-5-3.7c-4.7,1.5-6.7,7.3-3.4,9.7,1.4,1,1.3,1.3-1,2.8-3.1,2.1-3.3,4.4-.7,11.3l2,5.1-93.7,93.5c-56.1,55.9-95.7,94.7-98.7,96.6-15,9.3-27.6,8.2-35.2-3.1-4.1-6.1-5.3-10.2-6-19.8-.6-8.6.4-12.7,4.9-19.8,3.6-5.9,3-8.1-2.2-8.1-5.9,0-16.7,6-23.4,12.9-7.2,7.6-11,15.6-15.3,32.5-5.6,21.9-12.4,32.6-24.8,38.7-6,2.9-7.2,3.2-22.7,3.9-20,1-27.1,3-38.9,11-12.2,8.4-22.9,24.1-26.4,39-1.91,8.4-1.91,23.9,0,31.5A84.75,84.75,0,0,0,7,393.44c3.7,7.6,5.9,10.2,27.1,32,35.7,36.7,42.8,42.6,58,47.9,5.6,2,9.9,2.7,18.3,3.1,13.2.5,19.9-.9,32.4-6.9,6.8-3.2,10-5.6,16.6-12.2,13.1-13.1,18.5-25.1,20.5-45.4,2.6-26.2,6-34.3,20.5-48.1a77.9,77.9,0,0,1,28-17.8c31.7-11.8,38.8-15.7,51-27.9,7.1-7.1,10-10.8,13.3-17.3,2.5-5,4.2-9.7,4.2-11.8,0-3-.3-3.4-2.6-3.4-1.4,0-6.7,2.2-11.7,5-16.2,8.7-28.6,10.2-38.3,4.5-7.6-4.5-13.7-15-15-25.9l-.6-5.3,52.5-53.4c80-81.4,119-119.9,121.2-119.9,1.1,0,4.4,1.1,7.4,2.5,6.2,2.9,8.2,2.6,10.9-1.7,1.9-2.9,2-3,2.7-.9,1.4,4.5,9.5,1.5,9.5-3.6,0-2.3-2.4-4.8-3.9-3.9-2.3,1.4-1.8-1.3,1-5.5,1.6-2.4,3-4,3-3.4s.2,1.8.3,2.9c.2,2.9,3,4.2,6.1,2.8,4.9-2.3,5.1-9.2.1-9.2-3.8,0-3.8-1.2.1-5.2,4.1-4.2,6.3-3.8,6.3,1.3,0,3.3,1.3,4.3,4.5,3.5,5.8-1.5,7.1-9.6,1.5-9.6-4.6,0-4.5-1.9.2-4a26.75,26.75,0,0,1,10.4-2c3.8,0,6.6-.5,7.2-1.3s2-4.8,3.2-9c3.3-12,1.9-15.2-4.2-9.9-7.3,6.5-10.8,8.2-16.4,8.2-9,0-14.9-3.6-18.5-11.5s-2.2-14.8,4.6-23.1c2.5-3.1,4.4-6.2,4.2-6.8C442-.66,435.63-.36,428.63,2Z"/></g></g></svg>