<svg xmlns="http://www.w3.org/2000/svg" xmlns:xlink="http://www.w3.org/1999/xlink" viewBox="0 0 60 54.8"><defs><style>.cls-1{fill:url(#New_Gradient_Swatch_1);}</style><linearGradient id="New_Gradient_Swatch_1" x1="0.77" y1="17.88" x2="53.03" y2="43.08" gradientUnits="userSpaceOnUse"><stop offset="0.02" stop-color="#4f73c3"/><stop offset="1" stop-color="#3c46a2"/></linearGradient></defs><title>Asset 1</title><g id="Layer_2" data-name="Layer 2"><g id="Layer_1-2" data-name="Layer 1"><path class="cls-1" d="M30,0C13.4,0,0,10.7,0,24c0,6.7,3.5,12.8,9.1,17.2L2.7,54.8l19.1-7.6a37.06,37.06,0,0,0,8.2.9c16.6,0,30-10.7,30-24S46.6,0,30,0ZM20.1,26.2a3,3,0,1,1-4.8-3.6,2.84,2.84,0,0,1,.6-.6,3.11,3.11,0,0,1,4.2,0A3,3,0,0,1,20.1,26.2Zm12,0a3,3,0,1,1-4.8-3.6,2.84,2.84,0,0,1,.6-.6,3.11,3.11,0,0,1,4.2,0A3,3,0,0,1,32.1,26.2Zm12,0a3,3,0,0,1-2.1.9A3,3,0,0,1,39.9,22a3.11,3.11,0,0,1,4.2,0A3,3,0,0,1,44.1,26.2Z"/></g></g></svg>