<?xml version="1.0" ?>
<svg viewBox="0 0 32 32" xmlns="http://www.w3.org/2000/svg">
<defs>
<linearGradient id='g1' gradientUnits='userSpaceOnUse' x1='-9.91%' y1='19.43%' x2='109.91%' y2='80.57%'>
<stop stop-color='#7B42F6'/>
<stop offset='1' stop-color='#A6E1D5'/>
</linearGradient>
</defs>
<title/><g fill="url(#g1)" data-name="Layer 2" id="Layer_2"><path fill="url(#g1)" d="M9,16V30H3a1,1,0,0,1-1-1V3A1,1,0,0,1,3,2H6V15a1,1,0,0,0,1,1Z"/>
<rect height="12" width="4" x="8" y="2"/><path fill="url(#g1)" d="M19,16h2V30H11V16h2a1,1,0,0,0,1-1V2h4V15A1,1,0,0,0,19,16Z"/>
<rect height="12" width="4" x="20" y="2"/>
<path fill="url(#g1)" d="M30,3V29a1,1,0,0,1-1,1H23V16h2a1,1,0,0,0,1-1V2h3A1,1,0,0,1,30,3Z"/></g>
</svg>