<?xml version="1.0" encoding="utf-8"?>
<!-- Generator: Adobe Illustrator 23.0.0, SVG Export Plug-In . SVG Version: 6.00 Build 0)  -->
<svg version="1.1" id="Layer_1" xmlns="http://www.w3.org/2000/svg" xmlns:xlink="http://www.w3.org/1999/xlink" x="0px" y="0px"
	 viewBox="0 0 380 225" style="enable-background:new 0 0 380 225;" xml:space="preserve">
<style type="text/css">
	.st0{fill:none;}
	.st1{stroke:#000000;stroke-miterlimit:10;}
</style>
<path class="st0" d="M20,0h340c11,0,20,9,20,20v185c0,11-9,20-20,20H20c-11,0-20-9-20-20V20C0,9,9,0,20,0z"/>
<image style="overflow:visible;" width="1520" height="900" xlink:href="../../../../../../Downloads/Background 4.5 (1).png"  transform="matrix(0.25 0 0 0.25 0 0)">
</image>
<path class="st1" d="M0,0v62.7c10-1,25.3-2,43.9-0.5c15.7,1.3,22.1,3.3,32.5,4.2c24.2,2.1,38-4.8,61.1-10.6
	c12.6-3.2,55.6-14,98.2-5.1c14.7,3,37.6,10.2,63.4,29.4c5.1-0.7,10.4-1.2,16-1.4c25.8-1,48,4,64.9,9.9V0H0z"/>
</svg>
