<svg xmlns="http://www.w3.org/2000/svg" xmlns:xlink="http://www.w3.org/1999/xlink" viewBox="0 0 865.15 781.31"><defs><style>.cls-1{fill:url(#linear-gradient);}.cls-2{fill:url(#linear-gradient-2);}.cls-3{fill:url(#linear-gradient-3);}.cls-4{fill:url(#linear-gradient-4);}.cls-5{fill:url(#linear-gradient-5);}.cls-6{fill:url(#linear-gradient-6);}.cls-7{fill:url(#linear-gradient-7);}.cls-8{fill:url(#linear-gradient-8);}.cls-9{fill:url(#linear-gradient-9);}.cls-10{fill:url(#linear-gradient-10);}</style><linearGradient id="linear-gradient" x1="328.04" y1="0.17" x2="331.54" y2="0.17" gradientUnits="userSpaceOnUse"><stop offset="0" stop-color="#3672f8"/><stop offset="1" stop-color="#b01eff"/></linearGradient><linearGradient id="linear-gradient-2" x1="331.53" y1="0.17" x2="332.42" y2="0.17" xlink:href="#linear-gradient"/><linearGradient id="linear-gradient-3" x1="384.46" y1="0" x2="384.57" y2="0" xlink:href="#linear-gradient"/><linearGradient id="linear-gradient-4" x1="384.57" y1="0" x2="384.75" y2="0" xlink:href="#linear-gradient"/><linearGradient id="linear-gradient-5" x1="384.75" y1="0.93" x2="385.51" y2="0.93" xlink:href="#linear-gradient"/><linearGradient id="linear-gradient-6" x1="0" y1="390.65" x2="865.15" y2="390.65" xlink:href="#linear-gradient"/><linearGradient id="linear-gradient-7" x1="386.38" y1="411.44" x2="521.33" y2="411.44" xlink:href="#linear-gradient"/><linearGradient id="linear-gradient-8" x1="331.59" y1="1.48" x2="332.4" y2="1.48" xlink:href="#linear-gradient"/><linearGradient id="linear-gradient-9" x1="270.39" y1="296.19" x2="637.32" y2="296.19" xlink:href="#linear-gradient"/><linearGradient id="linear-gradient-10" x1="319.97" y1="0.2" x2="328.04" y2="0.2" xlink:href="#linear-gradient"/></defs><title>logo</title><g id="Layer_2" data-name="Layer 2"><g id="Layer_1-2" data-name="Layer 1"><path class="cls-1" d="M328,.18h3.5v0Z"/><path class="cls-2" d="M332.42.19v0h-.89v0h.88Z"/><path class="cls-3" d="M384.46,0h0Z"/><path class="cls-4" d="M384.57,0h0Z"/><path class="cls-5" d="M384.75,0V1.87A8.44,8.44,0,0,0,385.51,0Z"/><path class="cls-6" d="M860.4,357a135.75,135.75,0,0,0-28.76-53.22q-69.4-121.45-138.8-242.91c-6.82-11.53-24-36.71-56.18-50.39a113.5,113.5,0,0,0-31.4-8.27C519.51.75,444.36.06,385.51,0a8.44,8.44,0,0,1-.76,1.87l.35,169.44L490.86,173C612.1,194.61,698.11,303.22,691.62,422.48c-6.24,114.78-96.49,209-206.55,223.07-124.28,15.83-246.49-74.14-269.34-207.38Q215.88,229,216,19.73c0-1.74,0-3.47,0-5.21l-.25.16.17,9.05-.17-9a115,115,0,0,0-21.95,18.09A118.35,118.35,0,0,0,173.9,61.66c-.74,1.52-1.26,2.66-1.57,3.33C161,89.59,99.93,194.38,7.92,349.21c-4.16,11.27-15.58,46.75.1,84a103.32,103.32,0,0,0,17.6,28q76.25,135.66,152.5,271.32c6.48,10.43,20.33,29.05,44.61,39.66A92.68,92.68,0,0,0,240.91,778L616,781.31a112.77,112.77,0,0,0,77.66-57.84Q775.05,582.2,856.42,440.91C860.93,428.72,871.13,396,860.4,357Z"/><path class="cls-7" d="M386.79,424.13c12.58,39.15,51.34,60.68,85.1,52.05,25.86-6.61,46.54-30.37,49.16-58.24,3-32.27-18.74-63.67-52.47-73.12h-82.2Z"/><path class="cls-8" d="M332.4.37l-.81,0a23.23,23.23,0,0,0,.81,2.26Z"/><path class="cls-9" d="M636.4,390.88c-8.29-79.61-71.95-147-156.7-162.36H386.87q0,29.68,0,59.36l81,1.65c69.36,9.36,117.24,73.72,107.4,139.35-9.39,62.68-68.63,107.8-131.09,102.45-55.45-4.75-102-48.29-111.26-105.75l-.51-423a23.23,23.23,0,0,1-.81-2.26l-1,0c-2.33-.06-4.66-.07-7-.1-22.75.21-40.74.58-53.23,1.07l1.38,127.41c-.31,43.31-.17,78.68,0,103,.42,57.6,1.35,86.67.55,141.55-.73,50.91-1.82,46.37-1.1,52.88C278.77,493.7,354,602.45,471.16,591.37,574,581.65,646.4,486.85,636.4,390.88Z"/><path class="cls-10" d="M320,.17l3.65,0,4.42,0Z"/></g></g></svg>